<svg xmlns="http://www.w3.org/2000/svg" width="512" height="512" viewBox="0 0 512 512">
<rect width="512" height="512" fill="#16150f"/><polygon points="0,0 22,0 4,512 -16,512" fill="#16150f" opacity="0.5"/><polygon points="38,0 60,0 42,512 22,512" fill="#c9a44c" opacity="0.9"/><polygon points="60,0 82,0 64,512 44,512" fill="#16150f" opacity="0.9"/><polygon points="98,0 120,0 102,512 82,512" fill="#c9a44c" opacity="0.5"/><polygon points="120,0 142,0 124,512 104,512" fill="#16150f" opacity="0.9"/><polygon points="158,0 180,0 162,512 142,512" fill="#c9a44c" opacity="0.9"/><polygon points="180,0 202,0 184,512 164,512" fill="#16150f" opacity="0.5"/><polygon points="218,0 240,0 222,512 202,512" fill="#c9a44c" opacity="0.9"/><polygon points="240,0 262,0 244,512 224,512" fill="#16150f" opacity="0.9"/><polygon points="278,0 300,0 282,512 262,512" fill="#c9a44c" opacity="0.5"/><polygon points="300,0 322,0 304,512 284,512" fill="#16150f" opacity="0.9"/><polygon points="338,0 360,0 342,512 322,512" fill="#c9a44c" opacity="0.9"/><polygon points="360,0 382,0 364,512 344,512" fill="#16150f" opacity="0.5"/><polygon points="398,0 420,0 402,512 382,512" fill="#c9a44c" opacity="0.9"/><polygon points="420,0 442,0 424,512 404,512" fill="#16150f" opacity="0.9"/><polygon points="458,0 480,0 462,512 442,512" fill="#c9a44c" opacity="0.5"/><polygon points="480,0 502,0 484,512 464,512" fill="#16150f" opacity="0.9"/><polygon points="518,0 540,0 522,512 502,512" fill="#c9a44c" opacity="0.9"/></svg>